<svg width="100" height="100" viewBox="0 0 100 100" fill="none" xmlns="http://www.w3.org/2000/svg">
<circle cx="50" cy="50" r="50" fill="white"/>
<path d="M18.2393 69L7.97656 32.6364H15.0611L21.6129 59.3587H21.9503L28.946 32.6364H35.3913L42.4048 59.3764H42.7244L49.2763 32.6364H56.3608L46.098 69H39.5994L32.3196 43.4851H32.0355L24.7379 69H18.2393ZM80.4464 42.6328C80.2807 41.0821 79.5823 39.8748 78.3512 39.0107C77.132 38.1465 75.5458 37.7145 73.5927 37.7145C72.2196 37.7145 71.0418 37.9216 70.0593 38.3359C69.0768 38.7502 68.3252 39.3125 67.8043 40.0227C67.2835 40.733 67.0172 41.5438 67.0053 42.4553C67.0053 43.2128 67.177 43.8698 67.5202 44.4261C67.8754 44.9825 68.3548 45.456 68.9585 45.8466C69.5621 46.2254 70.2309 46.545 70.9648 46.8054C71.6987 47.0658 72.4386 47.2848 73.1843 47.4624L76.5934 48.3146C77.9665 48.6342 79.2863 49.0663 80.5529 49.6108C81.8313 50.1553 82.9736 50.8419 83.9798 51.6705C84.9978 52.4991 85.8027 53.4993 86.3945 54.6712C86.9864 55.843 87.2823 57.2161 87.2823 58.7905C87.2823 60.9212 86.7378 62.7973 85.6488 64.419C84.5598 66.0289 82.9854 67.2895 80.9258 68.201C78.878 69.1006 76.3981 69.5504 73.4862 69.5504C70.6571 69.5504 68.2009 69.1125 66.1175 68.2365C64.046 67.3606 62.4244 66.0821 61.2525 64.4013C60.0924 62.7204 59.4651 60.6726 59.3704 58.2578H65.8512C65.9459 59.5244 66.3365 60.5779 67.0231 61.4183C67.7096 62.2588 68.6033 62.8861 69.7042 63.3004C70.8169 63.7147 72.0598 63.9219 73.4329 63.9219C74.8652 63.9219 76.1199 63.7088 77.1971 63.2827C78.2861 62.8447 79.1384 62.241 79.7539 61.4716C80.3694 60.6903 80.6831 59.7789 80.695 58.7372C80.6831 57.7902 80.4049 57.009 79.8604 56.3935C79.3159 55.7661 78.5524 55.2453 77.57 54.831C76.5993 54.4048 75.463 54.026 74.1609 53.6946L70.0238 52.6293C67.029 51.8598 64.6616 50.6939 62.9215 49.1314C61.1933 47.5571 60.3292 45.4678 60.3292 42.8636C60.3292 40.7211 60.9092 38.8449 62.0692 37.2351C63.2411 35.6252 64.8332 34.3764 66.8455 33.4886C68.8578 32.589 71.1365 32.1392 73.6815 32.1392C76.262 32.1392 78.5228 32.589 80.4641 33.4886C82.4173 34.3764 83.9502 35.6134 85.0629 37.1996C86.1755 38.7739 86.7496 40.585 86.7852 42.6328H80.4464Z" fill="black"/>
</svg>
