<svg width="54" height="59" viewBox="0 0 54 59" fill="none" xmlns="http://www.w3.org/2000/svg">
<rect width="54" height="59" rx="20" fill="#3178C6"/>
<path d="M15.8878 34.6875V31.5181H30.8203V34.6875H25.2539V49.7H21.4542V34.6875H15.8878ZM43.1428 36.7472C43.0717 36.031 42.7669 35.4747 42.2283 35.0781C41.6897 34.6816 40.9588 34.4833 40.0355 34.4833C39.4081 34.4833 38.8784 34.5721 38.4464 34.7497C38.0143 34.9213 37.6829 35.161 37.4521 35.4688C37.2272 35.7765 37.1147 36.1257 37.1147 36.5164C37.1029 36.8419 37.1709 37.126 37.3189 37.3686C37.4728 37.6113 37.6829 37.8214 37.9492 37.999C38.2156 38.1706 38.5233 38.3215 38.8725 38.4517C39.2217 38.576 39.5946 38.6826 39.9911 38.7713L41.6246 39.162C42.4177 39.3395 43.1457 39.5763 43.8086 39.8722C44.4715 40.1681 45.0456 40.5321 45.5309 40.9642C46.0162 41.3962 46.392 41.9052 46.6584 42.4911C46.9306 43.0771 47.0697 43.7488 47.0756 44.5064C47.0697 45.6191 46.7856 46.5838 46.2234 47.4006C45.667 48.2114 44.8621 48.8418 43.8086 49.2916C42.761 49.7355 41.4974 49.9574 40.0178 49.9574C38.55 49.9574 37.2715 49.7325 36.1825 49.2827C35.0994 48.8329 34.2531 48.167 33.6435 47.2852C33.0398 46.3974 32.7231 45.2995 32.6935 43.9915H36.4134C36.4548 44.6011 36.6294 45.1101 36.9371 45.5185C37.2508 45.921 37.6681 46.2258 38.1889 46.4329C38.7157 46.6341 39.3105 46.7348 39.9734 46.7348C40.6244 46.7348 41.1896 46.6401 41.669 46.4507C42.1544 46.2613 42.5302 45.9979 42.7965 45.6605C43.0629 45.3232 43.196 44.9355 43.196 44.4975C43.196 44.0892 43.0747 43.7459 42.832 43.4677C42.5953 43.1895 42.2461 42.9528 41.7844 42.7575C41.3287 42.5622 40.7694 42.3846 40.1065 42.2248L38.1268 41.7276C36.5939 41.3548 35.3835 40.7718 34.4957 39.9787C33.608 39.1856 33.167 38.1173 33.1729 36.7738C33.167 35.673 33.46 34.7112 34.0518 33.8885C34.6496 33.0658 35.4693 32.4237 36.511 31.962C37.5527 31.5004 38.7364 31.2696 40.0621 31.2696C41.4116 31.2696 42.5894 31.5004 43.5955 31.962C44.6076 32.4237 45.3948 33.0658 45.957 33.8885C46.5193 34.7112 46.8093 35.6641 46.8271 36.7472H43.1428Z" fill="white"/>
</svg>
