<svg width="54" height="59" viewBox="0 0 54 59" fill="none" xmlns="http://www.w3.org/2000/svg">
<path d="M43.3118 20.8252C42.7725 20.6239 42.2293 20.4364 41.6823 20.2628C41.773 19.8595 41.8567 19.4539 41.9333 19.0459C43.1673 12.4891 42.3605 7.20677 39.6067 5.46788C36.97 3.79929 32.6457 5.53817 28.2836 9.69583C27.8547 10.1061 27.4345 10.5286 27.0232 10.9634C26.749 10.6746 26.4677 10.3918 26.1795 10.1153C21.6074 5.66954 17.0248 3.79698 14.2741 5.54163C11.6374 7.21368 10.8538 12.1791 11.9644 18.3937C12.0755 19.0083 12.2003 19.6202 12.3388 20.2294C11.7085 20.4246 11.0835 20.6398 10.4646 20.8747C5.11102 22.9201 1.6875 26.1271 1.6875 29.4528C1.6875 32.8891 5.36203 36.3346 10.9445 38.4238C11.3973 38.592 11.8543 38.7483 12.3156 38.8928C12.1658 39.545 12.0333 40.2045 11.918 40.8713C10.8633 46.9788 11.6859 51.8267 14.3174 53.4884C17.0353 55.2042 21.5947 53.4411 26.0392 49.189C26.3907 48.8525 26.7423 48.4972 27.0939 48.123C27.5382 48.5924 27.9953 49.048 28.465 49.4897C32.7681 53.5437 37.0174 55.1811 39.6446 53.5149C42.3605 51.7933 43.2432 46.5847 42.0968 40.2479C42.0089 39.7639 41.9077 39.27 41.793 38.766C42.1137 38.6623 42.4276 38.5551 42.7349 38.4445C48.5357 36.3392 52.3146 32.9351 52.3146 29.4562C52.3125 26.1144 48.7793 22.8867 43.3118 20.8252ZM29.7063 11.482C33.4431 7.92007 36.9362 6.51421 38.5288 7.51905C40.2237 8.58958 40.8829 12.9063 39.8176 18.5677C39.7473 18.9365 39.6714 19.3041 39.5898 19.6705C37.3598 19.1163 35.0985 18.7252 32.8208 18.4997C31.5167 16.4473 30.0872 14.4934 28.542 12.6516C28.9202 12.2506 29.3077 11.8607 29.7042 11.482H29.7063ZM16.6356 32.2944C17.0933 33.2624 17.5718 34.2185 18.071 35.1626C18.5794 36.126 19.1092 37.0751 19.6604 38.0101C18.0932 37.8239 16.5359 37.5497 14.9945 37.1884C15.4417 35.6074 15.9922 33.9653 16.6356 32.2944ZM16.6356 26.7252C16.0028 25.09 15.467 23.4813 15.0272 21.928C16.4721 21.5742 18.012 21.285 19.6172 21.066C19.0793 21.9833 18.5618 22.914 18.0647 23.8581C17.5676 24.8023 17.0902 25.758 16.6324 26.7252H16.6356ZM17.7852 29.5104C18.4518 27.9916 19.1696 26.502 19.9389 25.0416C20.7074 23.582 21.5255 22.1557 22.3931 20.7629C23.8992 20.6385 25.4433 20.5728 27.0032 20.5728C28.563 20.5728 30.1166 20.6385 31.6216 20.7641C32.4802 22.1538 33.2933 23.575 34.0611 25.0278C34.8289 26.4805 35.5563 27.9632 36.2433 29.4758C35.5655 31 34.8398 32.4957 34.0664 33.963C33.2993 35.4227 32.4907 36.8531 31.6406 38.2544C30.1377 38.3696 28.582 38.433 27 38.433C25.418 38.433 23.8918 38.3788 22.4163 38.274C21.5423 36.8765 20.7176 35.4442 19.942 33.9769C19.1665 32.5095 18.4465 31.0207 17.782 29.5104H17.7852ZM35.9385 35.1465C36.4482 34.1801 36.9376 33.201 37.4066 32.2092C38.0495 33.8018 38.617 35.4295 39.1068 37.0859C37.5473 37.4696 35.9705 37.7638 34.3828 37.9674C34.9186 37.0386 35.4371 36.0983 35.9385 35.1465ZM37.3855 26.7263C36.9186 25.7545 36.4331 24.7942 35.929 23.8455C35.4368 22.9098 34.9239 21.9856 34.3902 21.0729C36.0049 21.2965 37.5543 21.5938 39.0066 21.9568C38.5396 23.5753 37.9986 25.1671 37.3855 26.7263ZM27.0243 14.3444C28.0774 15.6017 29.0718 16.9163 30.0038 18.2831C28.0104 18.1794 26.0156 18.1794 24.0195 18.2831C25.0035 16.8611 26.0107 15.5417 27.0243 14.3444ZM15.3626 7.58935C17.0564 6.51536 20.8016 8.05028 24.7493 11.8841C25.0014 12.1296 25.2555 12.3866 25.5087 12.6527C23.9555 14.4943 22.5159 16.4465 21.1992 18.4963C18.9266 18.72 16.6698 19.1049 14.4429 19.6486C14.3142 19.0832 14.1982 18.5139 14.0948 17.9409C13.1404 12.6136 13.7721 8.59765 15.3626 7.58935ZM12.8936 36.6111C12.4717 36.4798 12.0551 36.3373 11.6438 36.1836C9.17578 35.2617 7.13707 34.0587 5.7375 32.7485C4.48453 31.5742 3.84961 30.4023 3.84961 29.4528C3.84961 27.435 6.59812 24.8607 11.1818 23.1149C11.7577 22.8959 12.3384 22.6958 12.9241 22.5145C13.6049 24.9048 14.4293 27.2434 15.3921 29.515C14.4179 31.818 13.5832 34.1885 12.8936 36.6111ZM24.6143 47.4051C22.6494 49.2858 20.6814 50.619 18.9464 51.2908C17.3876 51.8935 16.1462 51.9108 15.3963 51.4372C13.7995 50.4289 13.1351 46.5351 14.0411 41.3127C14.1486 40.6981 14.2717 40.0835 14.4102 39.4689C16.6594 39.9983 18.9389 40.3598 21.233 40.551C22.5625 42.6115 24.014 44.5747 25.5783 46.4279C25.264 46.7656 24.9423 47.0905 24.6143 47.4051ZM27.0844 44.7294C26.0592 43.5183 25.0362 42.1781 24.0384 40.7377C25.008 40.7792 25.9952 40.7999 27 40.7999C28.0315 40.7999 29.0524 40.7757 30.0586 40.7261C29.1301 42.1149 28.1374 43.451 27.0844 44.7294ZM40.2173 48.0239C39.9157 49.8032 39.3093 50.9901 38.5594 51.4648C36.9636 52.4766 33.5517 51.1618 29.873 47.6944C29.4511 47.298 29.0292 46.8727 28.6 46.4268C30.1338 44.5663 31.5513 42.5952 32.843 40.5268C35.1498 40.3132 37.4403 39.9263 39.6984 39.3687C39.8018 39.825 39.8932 40.2721 39.9727 40.71C40.48 43.5102 40.5527 46.0431 40.2173 48.0239ZM42.0525 36.1963C41.7762 36.2965 41.4914 36.3933 41.2024 36.4878C40.4944 34.0863 39.6377 31.7401 38.6385 29.4654C39.6003 27.2211 40.4233 24.909 41.1022 22.5445C41.6201 22.7092 42.1232 22.8821 42.6073 23.0653C47.2922 24.8307 50.1504 27.4442 50.1504 29.4528C50.1504 31.5961 47.0633 34.3779 42.0525 36.1963Z" fill="#61DAFB"/>
<path d="M27 34.4032C27.8976 34.4064 28.7759 34.1185 29.5236 33.5759C30.2714 33.0334 30.8549 32.2607 31.2005 31.3555C31.546 30.4504 31.6379 29.4536 31.4646 28.4913C31.2913 27.5291 30.8605 26.6447 30.2268 25.9501C29.5932 25.2555 28.7851 24.7819 27.905 24.5894C27.0249 24.3969 26.1122 24.4941 25.2827 24.8687C24.4531 25.2432 23.744 25.8783 23.245 26.6935C22.746 27.5087 22.4796 28.4674 22.4796 29.4481C22.4784 30.0978 22.5943 30.7415 22.8209 31.3422C23.0474 31.9429 23.3801 32.489 23.7999 32.9492C24.2197 33.4094 24.7185 33.7747 25.2675 34.0241C25.8166 34.2736 26.4053 34.4024 27 34.4032Z" fill="#61DAFB"/>
</svg>
