<svg width="100" height="100" viewBox="0 0 100 100" fill="none" xmlns="http://www.w3.org/2000/svg">
<path d="M96.875 21.3868C93.3583 22.9148 89.6375 23.9215 85.8301 24.375C89.8314 22.032 92.8405 18.3097 94.293 13.9063C90.51 16.1184 86.378 17.6705 82.0742 18.4961C80.2619 16.5968 78.0823 15.0858 75.6678 14.055C73.2534 13.0242 70.6546 12.4952 68.0293 12.5C57.4004 12.5 48.7988 20.9766 48.7988 31.4258C48.7913 32.8793 48.9578 34.3284 49.2949 35.7422C41.6732 35.3849 34.21 33.4406 27.3828 30.0337C20.5555 26.6268 14.5146 21.8324 9.64648 15.9571C7.93862 18.8362 7.03541 22.1212 7.03125 25.4688C7.03125 32.0313 10.4551 37.8321 15.625 41.2305C12.562 41.1578 9.5617 40.3471 6.87891 38.8672V39.1016C6.87891 48.2813 13.5195 55.918 22.3086 57.6563C20.6558 58.0969 18.9527 58.3201 17.2422 58.3203C16.0285 58.3225 14.8175 58.2047 13.627 57.9688C16.0703 65.4883 23.1816 70.9571 31.6055 71.1133C24.7605 76.3886 16.3567 79.2398 7.71484 79.2188C6.18089 79.2165 4.64837 79.1252 3.125 78.9453C11.9164 84.5591 22.1356 87.5284 32.5664 87.5C67.9883 87.5 87.3398 58.6524 87.3398 33.6328C87.3398 32.8125 87.3184 31.9922 87.2793 31.1914C91.0353 28.5197 94.2848 25.1995 96.875 21.3868V21.3868Z" fill="#00ADB5"/>
</svg>
