<svg width="100" height="100" viewBox="0 0 100 100" fill="none" xmlns="http://www.w3.org/2000/svg">
<path d="M86.752 6.25H13.7266C9.73633 6.25 6.25 9.12109 6.25 13.0645V86.252C6.25 90.2168 9.73633 93.75 13.7266 93.75H86.7305C90.7422 93.75 93.75 90.1934 93.75 86.252V13.0645C93.7734 9.12109 90.7422 6.25 86.752 6.25ZM33.373 79.1855H20.8379V40.2109H33.373V79.1855ZM27.5391 34.2852H27.4492C23.4375 34.2852 20.8398 31.2988 20.8398 27.5605C20.8398 23.7539 23.5059 20.8379 27.6074 20.8379C31.709 20.8379 34.2188 23.7324 34.3086 27.5605C34.3066 31.2988 31.709 34.2852 27.5391 34.2852ZM79.1855 79.1855H66.6504V57.875C66.6504 52.7695 64.8262 49.2813 60.291 49.2813C56.8262 49.2813 54.7754 51.625 53.8633 53.9082C53.5215 54.7285 53.4297 55.8457 53.4297 56.9863V79.1855H40.8945V40.2109H53.4297V45.6348C55.2539 43.0371 58.1035 39.2988 64.7344 39.2988C72.9629 39.2988 79.1875 44.7227 79.1875 56.416L79.1855 79.1855Z" fill="#00ADB5"/>
</svg>
