<svg width="100" height="100" viewBox="0 0 100 100" fill="none" xmlns="http://www.w3.org/2000/svg">
<path d="M68.2285 13.541C73.0591 13.5554 77.6877 15.4808 81.1035 18.8965C84.5192 22.3123 86.4446 26.9409 86.459 31.7715V68.2285C86.4446 73.0591 84.5192 77.6877 81.1035 81.1035C77.6877 84.5192 73.0591 86.4446 68.2285 86.459H31.7715C26.9409 86.4446 22.3123 84.5192 18.8965 81.1035C15.4808 77.6877 13.5554 73.0591 13.541 68.2285V31.7715C13.5554 26.9409 15.4808 22.3123 18.8965 18.8965C22.3123 15.4808 26.9409 13.5554 31.7715 13.541H68.2285V13.541ZM68.2285 6.25H31.7715C17.7344 6.25 6.25 17.7344 6.25 31.7715V68.2285C6.25 82.2656 17.7344 93.75 31.7715 93.75H68.2285C82.2656 93.75 93.75 82.2656 93.75 68.2285V31.7715C93.75 17.7344 82.2656 6.25 68.2285 6.25V6.25Z" fill="#00ADB5"/>
<path d="M73.6973 31.7715C72.6157 31.7715 71.5583 31.4508 70.659 30.8498C69.7597 30.2489 69.0587 29.3948 68.6448 28.3955C68.2309 27.3963 68.1226 26.2967 68.3336 25.2358C68.5446 24.175 69.0655 23.2006 69.8303 22.4357C70.5951 21.6709 71.5695 21.1501 72.6304 20.9391C73.6912 20.7281 74.7908 20.8364 75.7901 21.2503C76.7894 21.6642 77.6435 22.3651 78.2444 23.2645C78.8453 24.1638 79.166 25.2211 79.166 26.3027C79.1676 27.0213 79.0272 27.7332 78.7529 28.3974C78.4786 29.0616 78.0758 29.665 77.5677 30.1732C77.0596 30.6813 76.4561 31.0841 75.7919 31.3583C75.1277 31.6326 74.4159 31.773 73.6973 31.7715V31.7715ZM50 35.416C52.8844 35.416 55.7041 36.2714 58.1024 37.8739C60.5008 39.4764 62.37 41.7541 63.4739 44.419C64.5777 47.0838 64.8665 50.0162 64.3038 52.8452C63.741 55.6742 62.352 58.2728 60.3124 60.3124C58.2728 62.352 55.6742 63.741 52.8452 64.3038C50.0162 64.8665 47.0838 64.5777 44.419 63.4738C41.7541 62.37 39.4764 60.5008 37.8739 58.1024C36.2714 55.7041 35.416 52.8844 35.416 50C35.4202 46.1334 36.958 42.4263 39.6921 39.6921C42.4263 36.958 46.1334 35.4202 50 35.416V35.416ZM50 28.125C45.6735 28.125 41.4442 29.4079 37.8469 31.8116C34.2496 34.2153 31.4458 37.6317 29.7901 41.6288C28.1345 45.6259 27.7013 50.0243 28.5453 54.2676C29.3894 58.5109 31.4728 62.4087 34.532 65.468C37.5913 68.5272 41.4891 70.6106 45.7324 71.4547C49.9757 72.2987 54.3741 71.8655 58.3712 70.2099C62.3683 68.5542 65.7848 65.7504 68.1884 62.1531C70.5921 58.5558 71.875 54.3265 71.875 50C71.875 44.1984 69.5703 38.6344 65.468 34.532C61.3656 30.4297 55.8016 28.125 50 28.125V28.125Z" fill="#00ADB5"/>
</svg>
