<svg width="54" height="59" viewBox="0 0 54 59" fill="none" xmlns="http://www.w3.org/2000/svg">
<path d="M45.3263 14.9886L28.9333 4.24642C28.3445 3.87965 27.6784 3.68677 27.0006 3.68677C26.3228 3.68677 25.6567 3.87965 25.0679 4.24642L8.6738 14.9874C8.08301 15.383 7.59557 15.9383 7.25858 16.5998C6.92159 17.2613 6.74644 18.0066 6.75005 18.7636V40.2168C6.74651 40.9743 6.92166 41.7201 7.25862 42.3821C7.59558 43.0441 8.08297 43.6001 8.6738 43.9965L12.9727 46.8013L12.997 46.8163C15.1675 48.0297 15.9986 48.0297 16.9615 48.0297C20.3513 48.0297 22.4575 45.6328 22.4575 41.7736V20.9727C22.4595 20.713 22.3671 20.4631 22.2006 20.2777C22.0341 20.0924 21.8071 19.9867 21.5695 19.984H19.2091C18.9714 19.9867 18.7444 20.0924 18.5779 20.2777C18.4115 20.4631 18.3191 20.713 18.321 20.9727V41.7736C18.3296 42.0714 18.2676 42.3666 18.141 42.6305C18.0144 42.8944 17.8276 43.118 17.5986 43.2798C16.9763 43.6946 16.0724 43.607 15.0526 43.032L10.9329 40.3228C10.9172 40.3111 10.9043 40.2953 10.8955 40.2768C10.8866 40.2583 10.8821 40.2377 10.8823 40.2168V19.0667C10.883 19.0424 10.889 19.0186 10.8998 18.9974C10.9107 18.9761 10.926 18.958 10.9445 18.9446L26.9589 8.22777C26.9709 8.22127 26.9841 8.21789 26.9974 8.21789C27.0108 8.21789 27.024 8.22127 27.0359 8.22777L43.0598 18.9446C43.078 18.9591 43.0928 18.9782 43.1029 19.0002C43.113 19.0223 43.1181 19.0467 43.1178 19.0713V40.2168C43.1182 40.2387 43.1141 40.2603 43.1059 40.2803C43.0977 40.3002 43.0856 40.3179 43.0703 40.3321L27.0327 50.7781C27.0054 50.7884 26.9757 50.7884 26.9484 50.7781L22.853 48.1208C22.7314 48.0339 22.591 47.9838 22.4459 47.9755C22.3009 47.9672 22.1564 48.001 22.0272 48.0735L21.9913 48.0966C20.8607 48.8283 20.557 49.0184 19.5086 49.4356C19.3378 49.5036 18.9359 49.666 18.9011 50.1005C18.8663 50.5349 19.2481 50.8437 19.5877 51.0592L25.0615 54.7318C25.6448 55.1135 26.3118 55.3154 26.9916 55.316H27.0528C27.7156 55.3046 28.3641 55.1032 28.9333 54.7318L45.3263 44C45.9168 43.6024 46.4039 43.0456 46.7408 42.3831C47.0777 41.7207 47.253 40.9747 47.2501 40.2168V18.7636C47.2534 18.0068 47.0781 17.2618 46.7411 16.6006C46.4042 15.9393 45.9169 15.3841 45.3263 14.9886Z" fill="#43853D"/>
<path d="M32.4717 36.6503C28.5388 36.6503 27.7003 35.4495 27.4514 33.5113C27.4234 33.2805 27.3204 33.0684 27.1613 32.9136C27.0022 32.7588 26.7975 32.6715 26.5845 32.6678H24.4962C24.2608 32.6732 24.037 32.7803 23.8738 32.9656C23.7105 33.1509 23.621 33.3993 23.625 33.6565C23.625 35.3366 24.165 40.8206 32.4759 40.8206C35.0473 40.8206 37.1862 40.1638 38.6596 38.9204C40.133 37.677 40.9219 35.8678 40.9219 33.7118C40.9219 29.3847 38.3379 28.2001 33.249 27.4257C28.0758 26.6398 28.0758 26.24 28.0758 25.3642C28.0758 24.7339 28.0758 23.2577 31.8157 23.2577C34.4767 23.2577 35.9016 23.6253 36.3572 25.5624C36.3975 25.7772 36.5038 25.9704 36.6584 26.1102C36.813 26.25 37.0066 26.3279 37.2073 26.331H39.3029C39.4264 26.3297 39.5483 26.2996 39.6603 26.2428C39.7723 26.1859 39.872 26.1037 39.9526 26.0015C40.1137 25.7959 40.1941 25.5292 40.1762 25.2593C39.9052 21.1628 37.164 19.0851 31.8189 19.0851C26.961 19.0851 24.0616 21.4762 24.0616 25.4806C24.0616 29.871 27.0664 31.1121 31.5805 31.626C36.8539 32.2218 36.8539 33.0907 36.8539 33.8581C36.8571 35.0543 36.4025 36.6503 32.4717 36.6503Z" fill="#43853D"/>
</svg>
