<svg width="50" height="50" viewBox="0 0 50 50" fill="none" xmlns="http://www.w3.org/2000/svg">
<path d="M43.376 3.125H6.86328C4.86816 3.125 3.125 4.56055 3.125 6.53223V43.126C3.125 45.1084 4.86816 46.875 6.86328 46.875H43.3652C45.3711 46.875 46.875 45.0967 46.875 43.126V6.53223C46.8867 4.56055 45.3711 3.125 43.376 3.125ZM16.6865 39.5928H10.4189V20.1055H16.6865V39.5928ZM13.7695 17.1426H13.7246C11.7187 17.1426 10.4199 15.6494 10.4199 13.7803C10.4199 11.877 11.7529 10.4189 13.8037 10.4189C15.8545 10.4189 17.1094 11.8662 17.1543 13.7803C17.1533 15.6494 15.8545 17.1426 13.7695 17.1426ZM39.5928 39.5928H33.3252V28.9375C33.3252 26.3848 32.4131 24.6406 30.1455 24.6406C28.4131 24.6406 27.3877 25.8125 26.9316 26.9541C26.7607 27.3643 26.7148 27.9228 26.7148 28.4932V39.5928H20.4473V20.1055H26.7148V22.8174C27.627 21.5186 29.0518 19.6494 32.3672 19.6494C36.4814 19.6494 39.5938 22.3613 39.5938 28.208L39.5928 39.5928Z" fill="white"/>
</svg>
