<svg width="100" height="100" viewBox="0 0 100 100" fill="none" xmlns="http://www.w3.org/2000/svg">
<path d="M50 6.25C25.8398 6.25 6.25 26.3477 6.25 51.1133C6.25 70.9375 18.7891 87.7344 36.1719 93.6719C36.4157 93.7248 36.6646 93.751 36.9141 93.75C38.5352 93.75 39.1602 92.5586 39.1602 91.5234C39.1602 90.4492 39.1211 87.6367 39.1016 83.8867C37.6544 84.226 36.1739 84.4029 34.6875 84.4141C26.2695 84.4141 24.3555 77.8711 24.3555 77.8711C22.3633 72.6953 19.4922 71.3086 19.4922 71.3086C15.6836 68.6328 19.4727 68.5547 19.7656 68.5547H19.7852C24.1797 68.9453 26.4844 73.2031 26.4844 73.2031C28.6719 77.0312 31.6016 78.1055 34.2187 78.1055C35.9493 78.0709 37.6531 77.6715 39.2188 76.9336C39.6094 74.043 40.7422 72.0703 41.9922 70.9375C32.2852 69.8047 22.0703 65.957 22.0703 48.7695C22.0703 43.8672 23.7695 39.8633 26.5625 36.7383C26.1133 35.6055 24.6094 31.0352 26.9922 24.8633C27.3118 24.7868 27.6403 24.754 27.9687 24.7656C29.5508 24.7656 33.125 25.3711 39.0234 29.4727C46.1905 27.4674 53.7704 27.4674 60.9375 29.4727C66.8359 25.3711 70.4102 24.7656 71.9922 24.7656C72.3206 24.754 72.6491 24.7868 72.9688 24.8633C75.3516 31.0352 73.8477 35.6055 73.3984 36.7383C76.1914 39.8828 77.8906 43.8867 77.8906 48.7695C77.8906 65.9961 67.6563 69.7852 57.9102 70.8984C59.4727 72.2852 60.8789 75.0195 60.8789 79.1992C60.8789 85.1953 60.8203 90.0391 60.8203 91.5039C60.8203 92.5586 61.4258 93.75 63.0469 93.75C63.3093 93.7512 63.5711 93.725 63.8281 93.6719C81.2305 87.7344 93.75 70.918 93.75 51.1133C93.75 26.3477 74.1602 6.25 50 6.25Z" fill="#00ADB5"/>
</svg>
