<svg width="91" height="91" viewBox="0 0 91 91" fill="none" xmlns="http://www.w3.org/2000/svg">
<path d="M5.17712 84.3804C5.27019 85.3418 6.03144 86.1025 6.99283 86.1959C19.3013 87.3905 32.3045 89.5 45.75 89.5C59.1956 89.5 72.1987 87.3905 84.5072 86.1959C85.4686 86.1025 86.2298 85.3418 86.3229 84.3804C87.5105 72.1121 89.5 59.1515 89.5 45.75C89.5 32.3485 87.5105 19.3879 86.3229 7.11959C86.2298 6.15817 85.4686 5.39745 84.5072 5.30414C72.1987 4.10947 59.1956 2 45.75 2C32.3045 2 19.3013 4.10947 6.99283 5.30414C6.03143 5.39745 5.27019 6.15817 5.17712 7.11958C3.9895 19.3879 2 32.3485 2 45.75C2 59.1515 3.98951 72.1121 5.17712 84.3804Z" fill="#00ADB5" stroke="white" stroke-width="3" stroke-linejoin="round"/>
<path d="M4.16699 16.291L44.4337 51.4929C45.1875 52.1519 46.3125 52.1519 47.0663 51.4929L87.333 16.291" stroke="white" stroke-width="3" stroke-linejoin="round"/>
</svg>
