<svg width="200" height="36" viewBox="0 0 200 36" fill="none" xmlns="http://www.w3.org/2000/svg">
<path d="M0.0340909 20.7727V18.5L18.3295 9.18182V12.8182L4.29545 19.5795L4.40909 19.3523V19.9205L4.29545 19.6932L18.3295 26.4545V30.0909L0.0340909 20.7727ZM35.7195 0.545453L26.3445 35.375H23.2763L32.6513 0.545453H35.7195ZM45.4318 31L37.4773 1.90909H41.0568L47.1364 25.6023H47.4205L53.6136 1.90909H57.5909L63.7841 25.6023H64.0682L70.1477 1.90909H73.7273L65.7727 31H62.1364L55.7159 7.81818H55.4886L49.0682 31H45.4318ZM84.7784 31.4545C82.6761 31.4545 80.8627 30.9905 79.3381 30.0625C77.8229 29.125 76.6534 27.8182 75.8295 26.142C75.0152 24.4564 74.608 22.4962 74.608 20.2614C74.608 18.0265 75.0152 16.0568 75.8295 14.3523C76.6534 12.6383 77.7992 11.303 79.267 10.3466C80.7443 9.38068 82.4678 8.89773 84.4375 8.89773C85.5739 8.89773 86.696 9.08712 87.804 9.46591C88.9119 9.8447 89.9205 10.4602 90.8295 11.3125C91.7386 12.1553 92.4631 13.2727 93.0028 14.6648C93.5426 16.0568 93.8125 17.7708 93.8125 19.8068V21.2273H76.9943V18.3295H90.4034C90.4034 17.0985 90.1572 16 89.6648 15.0341C89.1818 14.0682 88.4905 13.3059 87.5909 12.7472C86.7008 12.1884 85.6496 11.9091 84.4375 11.9091C83.1023 11.9091 81.947 12.2405 80.9716 12.9034C80.0057 13.5568 79.2623 14.4091 78.7415 15.4602C78.2206 16.5114 77.9602 17.6383 77.9602 18.8409V20.7727C77.9602 22.4205 78.2443 23.8172 78.8125 24.9631C79.3902 26.0994 80.1903 26.9659 81.2131 27.5625C82.2358 28.1496 83.4242 28.4432 84.7784 28.4432C85.6591 28.4432 86.4545 28.3201 87.1648 28.0739C87.8845 27.8182 88.5047 27.4394 89.0256 26.9375C89.5464 26.4261 89.9489 25.7917 90.233 25.0341L93.4716 25.9432C93.1307 27.0417 92.5578 28.0076 91.7528 28.8409C90.9479 29.6648 89.9536 30.3087 88.7699 30.7727C87.5862 31.2273 86.2557 31.4545 84.7784 31.4545ZM102.264 17.875V31H98.9119V9.18182H102.151V12.5909H102.435C102.946 11.483 103.723 10.5928 104.764 9.92045C105.806 9.23864 107.151 8.89773 108.798 8.89773C110.276 8.89773 111.568 9.20076 112.676 9.80682C113.784 10.4034 114.646 11.3125 115.261 12.5341C115.877 13.7462 116.185 15.2803 116.185 17.1364V31H112.832V17.3636C112.832 15.6496 112.387 14.3144 111.497 13.358C110.607 12.392 109.385 11.9091 107.832 11.9091C106.762 11.9091 105.806 12.1411 104.963 12.6051C104.13 13.0691 103.472 13.7462 102.989 14.6364C102.506 15.5265 102.264 16.6061 102.264 17.875ZM130.549 31.4545C128.731 31.4545 127.126 30.9953 125.734 30.0767C124.342 29.1487 123.253 27.8419 122.467 26.1562C121.681 24.4612 121.288 22.4583 121.288 20.1477C121.288 17.8561 121.681 15.8674 122.467 14.1818C123.253 12.4962 124.346 11.1941 125.748 10.2756C127.149 9.35701 128.769 8.89773 130.606 8.89773C132.026 8.89773 133.148 9.13447 133.972 9.60795C134.806 10.072 135.44 10.6023 135.876 11.1989C136.321 11.786 136.666 12.2689 136.913 12.6477H137.197V1.90909H140.549V31H137.31V27.6477H136.913C136.666 28.0455 136.316 28.5473 135.862 29.1534C135.407 29.75 134.758 30.285 133.915 30.7585C133.073 31.2225 131.951 31.4545 130.549 31.4545ZM131.004 28.4432C132.348 28.4432 133.485 28.0928 134.413 27.392C135.341 26.6818 136.046 25.7017 136.529 24.4517C137.012 23.1922 137.254 21.7386 137.254 20.0909C137.254 18.4621 137.017 17.0369 136.543 15.8153C136.07 14.5843 135.369 13.6278 134.441 12.946C133.513 12.2547 132.367 11.9091 131.004 11.9091C129.583 11.9091 128.399 12.2737 127.452 13.0028C126.515 13.7225 125.809 14.7027 125.336 15.9432C124.872 17.1742 124.64 18.5568 124.64 20.0909C124.64 21.6439 124.877 23.0549 125.35 24.3239C125.833 25.5833 126.543 26.5871 127.481 27.3352C128.428 28.0739 129.602 28.4432 131.004 28.4432ZM156.302 31.4545C154.2 31.4545 152.386 30.9905 150.862 30.0625C149.346 29.125 148.177 27.8182 147.353 26.142C146.539 24.4564 146.131 22.4962 146.131 20.2614C146.131 18.0265 146.539 16.0568 147.353 14.3523C148.177 12.6383 149.323 11.303 150.79 10.3466C152.268 9.38068 153.991 8.89773 155.961 8.89773C157.097 8.89773 158.219 9.08712 159.327 9.46591C160.435 9.8447 161.444 10.4602 162.353 11.3125C163.262 12.1553 163.987 13.2727 164.526 14.6648C165.066 16.0568 165.336 17.7708 165.336 19.8068V21.2273H148.518V18.3295H161.927C161.927 17.0985 161.681 16 161.188 15.0341C160.705 14.0682 160.014 13.3059 159.114 12.7472C158.224 12.1884 157.173 11.9091 155.961 11.9091C154.626 11.9091 153.47 12.2405 152.495 12.9034C151.529 13.5568 150.786 14.4091 150.265 15.4602C149.744 16.5114 149.484 17.6383 149.484 18.8409V20.7727C149.484 22.4205 149.768 23.8172 150.336 24.9631C150.914 26.0994 151.714 26.9659 152.737 27.5625C153.759 28.1496 154.948 28.4432 156.302 28.4432C157.183 28.4432 157.978 28.3201 158.688 28.0739C159.408 27.8182 160.028 27.4394 160.549 26.9375C161.07 26.4261 161.472 25.7917 161.756 25.0341L164.995 25.9432C164.654 27.0417 164.081 28.0076 163.276 28.8409C162.471 29.6648 161.477 30.3087 160.293 30.7727C159.11 31.2273 157.779 31.4545 156.302 31.4545ZM173.788 1.90909V31H170.435V1.90909H173.788ZM199.189 20.7727L180.893 30.0909V26.4545L194.928 19.6932L194.814 19.9205V19.3523L194.928 19.5795L180.893 12.8182V9.18182L199.189 18.5V20.7727Z" fill="#222831"/>
</svg>
